<svg height="511pt" viewBox="1 -4 511.999 511" width="511pt" xmlns="http://www.w3.org/2000/svg"><path d="m504.5 24.484375h-49.300781v-16.484375c0-4.140625-3.355469-7.5-7.5-7.5h-204.875c-4.144531 0-7.5 3.359375-7.5 7.5v16.484375h-227.824219c-4.140625 0-7.5 3.359375-7.5 7.5v66.921875c0 4.144531 3.359375 7.5 7.5 7.5h77.292969c4.140625 0 7.5-3.355469 7.5-7.5 0-4.140625-3.359375-7.5-7.5-7.5h-69.792969v-51.921875h220.324219v51.921875h-116.035157c-4.140624 0-7.5 3.359375-7.5 7.5 0 4.144531 3.359376 7.5 7.5 7.5h116.035157v20.734375c0 .871094.15625 1.703125.429687 2.480469.132813 1.203125.542969 2.375 1.253906 3.40625l56.933594 82.839844c1.398438 2.035156 3.710938 3.253906 6.179688 3.253906h16.378906v34.324218c0 4.144532 3.359375 7.5 7.5 7.5h14.832031v24h-69.558593c-4.140626 0-7.5 3.359376-7.5 7.5v91c0 4.144532 3.359374 7.5 7.5 7.5h168c4.140624 0 7.5-3.355468 7.5-7.5v-91c0-4.140624-3.359376-7.5-7.5-7.5h-83.441407v-24h13.832031c4.144532 0 7.5-3.355468 7.5-7.5v-34.324218h15.234376c2.472656 0 4.785156-1.21875 6.183593-3.253906l56.933594-82.839844c.707031-1.03125 1.117187-2.203125 1.253906-3.402344.273438-.777344.429688-1.613281.429688-2.484375v-20.734375h49.300781c4.140625 0 7.5-3.355469 7.5-7.5v-66.921875c0-4.140625-3.359375-7.5-7.5-7.5zm-74.726562 351.460937h-153v-76h153zm10.425781-360.445312v38.78125h-44.929688c-4.140625 0-7.5 3.355469-7.5 7.5 0 4.140625 3.359375 7.5 7.5 7.5h44.929688v50.359375h-189.875v-50.359375h94.011719c4.140624 0 7.5-3.359375 7.5-7.5 0-4.144531-3.359376-7.5-7.5-7.5h-94.011719v-38.78125zm-80.03125 230.445312h-28.667969v-26.828124h28.667969zm26.285156-41.824218h-82.386719l-46.625-67.839844h175.636719zm110.546875-112.714844h-41.800781v-51.921875h41.800781zm0 0"/><path d="m437.273438 402.542969h-274.484376c-4.140624 0-7.5 3.355469-7.5 7.5 0 4.140625 3.359376 7.5 7.5 7.5h266.984376v21.417969l-353.980469.972656v-22.390625h52.496093c4.144532 0 7.5-3.359375 7.5-7.5 0-4.144531-3.355468-7.5-7.5-7.5h-59.996093c-4.140625 0-7.5 3.355469-7.5 7.5v85.496093c0 4.140626 3.359375 7.5 7.5 7.5h368.980469c4.140624 0 7.5-3.359374 7.5-7.5v-85.496093c0-4.144531-3.355469-7.5-7.5-7.5zm-361.480469 85.496093v-33.105468l353.980469-.972656v34.078124zm0 0"/><path d="m79.667969 327.945312h145c4.140625 0 7.5-3.359374 7.5-7.5 0-4.140624-3.359375-7.5-7.5-7.5h-145c-4.144531 0-7.5 3.359376-7.5 7.5 0 4.140626 3.355469 7.5 7.5 7.5zm0 0"/><path d="m79.667969 363.945312h145c4.140625 0 7.5-3.359374 7.5-7.5 0-4.140624-3.359375-7.5-7.5-7.5h-145c-4.144531 0-7.5 3.359376-7.5 7.5 0 4.140626 3.355469 7.5 7.5 7.5zm0 0"/></svg>